<svg width="30" height="30" viewBox="0 0 30 30" fill="none" xmlns="http://www.w3.org/2000/svg">
<path d="M16.0781 23.2546C18.5213 21.3495 21.1533 20.3724 23.8122 20.3829C25.3199 20.3813 26.8204 20.7009 28.2833 21.3329" stroke="#D83DFF" stroke-width="1.5" stroke-linejoin="round"/>
<path d="M21.1031 10.335C22.2926 10.335 23.2569 9.37073 23.2569 8.18119C23.2569 6.99165 22.2926 6.02734 21.1031 6.02734C19.9135 6.02734 18.9492 6.99165 18.9492 8.18119C18.9492 9.37073 19.9135 10.335 21.1031 10.335Z" stroke="#D83DFF" stroke-width="1.5"/>
<path d="M1 14.641C1 8.2106 1 4.99537 2.99768 2.99768C4.99537 1 8.2106 1 14.641 1C21.0714 1 24.2867 1 26.2845 2.99768C28.2821 4.99537 28.2821 8.2106 28.2821 14.641C28.2821 21.0714 28.2821 24.2867 26.2845 26.2845C24.2867 28.2821 21.0714 28.2821 14.641 28.2821C8.2106 28.2821 4.99537 28.2821 2.99768 26.2845C1 24.2867 1 21.0714 1 14.641Z" stroke="#7A44FF" stroke-width="1.5"/>
<path d="M20.3854 28.9989C19.4959 25.8039 17.4196 22.9424 14.4645 20.8634C11.2784 18.6215 7.27802 17.435 3.17718 17.5156C2.69025 17.5144 2.20374 17.5299 1.71875 17.5621" stroke="#7A44FF" stroke-width="1.5" stroke-linejoin="round"/>
</svg>
