<svg width="30" height="30" viewBox="0 0 30 30" fill="none" xmlns="http://www.w3.org/2000/svg">
<path d="M5.19775 8L3.49143 9.13754C2.26822 9.95301 1.65662 10.3608 1.32518 10.9826C0.993729 11.6044 0.99618 12.3352 1.00109 13.7968C1.007 15.5565 1.02337 17.3495 1.06866 19.1637C1.17609 23.4682 1.22981 25.6204 2.81237 27.203C4.39493 28.7857 6.57621 28.8401 10.9388 28.9492C13.6528 29.0169 16.3427 29.0169 19.0568 28.9492C23.4193 28.8401 25.6007 28.7857 27.1832 27.203C28.7658 25.6204 28.8194 23.4682 28.9269 19.1637C28.9721 17.3495 28.9885 15.5565 28.9944 13.7968C28.9993 12.3352 29.0018 11.6044 28.6703 10.9826C28.3389 10.3608 27.7273 9.95301 26.5041 9.13754L24.7978 8" stroke="#7A44FF" stroke-width="1.5" stroke-linejoin="round"/>
<path d="M1 12.1992L10.6782 18.0061C12.7838 19.2695 13.8366 19.9012 15 19.9012C16.1634 19.9012 17.2162 19.2695 19.3218 18.0061L29 12.1992" stroke="#7A44FF" stroke-width="1.5" stroke-linejoin="round"/>
<path d="M5.19922 15V6.6C5.19922 3.96013 5.19922 2.6402 6.01933 1.82011C6.83943 1 8.15936 1 10.7992 1H19.1992C21.8391 1 23.159 1 23.9791 1.82011C24.7992 2.6402 24.7992 3.96013 24.7992 6.6V15" stroke="#7A44FF" stroke-width="1.5"/>
<path d="M11.8665 6.98818C12.9928 6.34849 13.9759 6.60627 14.5664 7.0169C14.8084 7.18527 14.9295 7.26945 15.0008 7.26945C15.0721 7.26945 15.193 7.18527 15.4352 7.0169C16.0257 6.60627 17.0088 6.34849 18.1351 6.98818C19.6132 7.82771 19.9477 10.5973 16.5381 12.934C15.8888 13.3791 15.564 13.6016 15.0008 13.6016C14.4374 13.6016 14.1128 13.3791 13.4633 12.934C10.0539 10.5973 10.3884 7.82771 11.8665 6.98818Z" stroke="#D83DFF" stroke-width="1.5" stroke-linecap="round"/>
</svg>
