<svg width="27" height="30" viewBox="0 0 27 30" fill="none" xmlns="http://www.w3.org/2000/svg">
<path d="M16.2946 16.0877L13.2869 13.0801C12.877 12.6702 12.6721 12.4652 12.4509 12.3556C12.0302 12.1471 11.5362 12.1471 11.1154 12.3556C10.8943 12.4652 10.6893 12.6702 10.2794 13.0801C9.86937 13.4902 9.66438 13.6951 9.5548 13.9162C9.34632 14.337 9.34632 14.8309 9.5548 15.2516C9.66438 15.4728 9.86937 15.6778 10.2794 16.0877L13.2869 19.0953M16.2946 16.0877L25.3176 25.1107C25.7275 25.5207 25.9325 25.7256 26.0421 25.9468C26.2505 26.3675 26.2505 26.8614 26.0421 27.2823C25.9325 27.5033 25.7275 27.7083 25.3176 28.1184C24.9075 28.5283 24.7026 28.7332 24.4815 28.8429C24.0607 29.0513 23.5667 29.0513 23.146 28.8429C22.9248 28.7332 22.7199 28.5283 22.31 28.1184L13.2869 19.0953M16.2946 16.0877L13.2869 19.0953" stroke="#7A44FF" stroke-width="1.5" stroke-linecap="round" stroke-linejoin="round"/>
<path d="M20.6 1L21.0127 2.11524C21.5538 3.57764 21.8244 4.30883 22.3578 4.84224C22.8913 5.37564 23.6223 5.6462 25.0848 6.18733L26.2 6.60001L25.0848 7.01269C23.6223 7.55381 22.8913 7.82439 22.3578 8.35778C21.8244 8.89118 21.5538 9.62237 21.0127 11.0848L20.6 12.2L20.1873 11.0848C19.6462 9.62239 19.3756 8.89118 18.8422 8.35778C18.3088 7.82438 17.5777 7.55381 16.1152 7.01269L15 6.60001L16.1152 6.18733C17.5777 5.6462 18.3088 5.37564 18.8422 4.84224C19.3756 4.30883 19.6462 3.57764 20.1873 2.11524L20.6 1Z" stroke="#D83DFF" stroke-width="1.5" stroke-linejoin="round"/>
<path d="M5.20001 3.80078L5.50952 4.63721C5.91536 5.734 6.11829 6.28241 6.51835 6.68246C6.91838 7.0825 7.46679 7.28543 8.56358 7.69127L9.40001 8.00079L8.56358 8.3103C7.46679 8.71615 6.91838 8.91908 6.51833 9.31913C6.11829 9.71916 5.91536 10.2676 5.50952 11.3644L5.20001 12.2008L4.89049 11.3644C4.48465 10.2676 4.28172 9.71916 3.88167 9.31913C3.48163 8.91908 2.93322 8.71615 1.83643 8.3103L1 8.00079L1.83643 7.69127C2.93322 7.28543 3.48163 7.0825 3.88167 6.68245C4.28172 6.28241 4.48465 5.734 4.89049 4.63721L5.20001 3.80078Z" stroke="#D83DFF" stroke-width="1.5" stroke-linejoin="round"/>
</svg>
