<svg width="29" height="30" viewBox="0 0 29 30" fill="none" xmlns="http://www.w3.org/2000/svg">
<path d="M4.33203 27.6654L9.66536 22.332M12.332 22.332L17.6654 27.6654M10.9987 22.332V28.9987" stroke="#D83DFF" stroke-width="1.5" stroke-linecap="round" stroke-linejoin="round"/>
<path d="M1 14.8333C1 12.0835 1 10.7085 2.36684 9.85427C3.73367 9 5.93356 9 10.3333 9H11.6667C16.0664 9 18.2663 9 19.6332 9.85427C21 10.7085 21 12.0835 21 14.8333V16.5C21 19.2499 21 20.6248 19.6332 21.4791C18.2663 22.3333 16.0664 22.3333 11.6667 22.3333H10.3333C5.93356 22.3333 3.73367 22.3333 2.36684 21.4791C1 20.6248 1 19.2499 1 16.5V14.8333Z" stroke="#7A44FF" stroke-width="1.5"/>
<path d="M21 12.6649L21.1679 12.5643C23.9889 10.8714 25.3995 10.025 26.5331 10.4337C27.6667 10.8424 27.6667 12.1973 27.6667 14.9072V16.4236C27.6667 19.1335 27.6667 20.4884 26.5331 20.8971C25.3995 21.3057 23.9889 20.4593 21.1679 18.7665L21 18.6657" stroke="#7A44FF" stroke-width="1.5" stroke-linecap="round"/>
<path d="M15.0013 8.9987C16.8423 8.9987 18.3346 7.50631 18.3346 5.66536C18.3346 3.82442 16.8423 2.33203 15.0013 2.33203C13.1604 2.33203 11.668 3.82442 11.668 5.66536C11.668 7.50631 13.1604 8.9987 15.0013 8.9987Z" stroke="#7A44FF" stroke-width="1.5"/>
<path d="M7.66797 9C9.87711 9 11.668 7.20914 11.668 5C11.668 2.79086 9.87711 1 7.66797 1C5.45883 1 3.66797 2.79086 3.66797 5C3.66797 7.20914 5.45883 9 7.66797 9Z" stroke="#7A44FF" stroke-width="1.5"/>
</svg>
