<svg width="30" height="30" viewBox="0 0 30 30" fill="none" xmlns="http://www.w3.org/2000/svg">
<path d="M1 10.5781H29" stroke="#D83DFF" stroke-width="1.5" stroke-linejoin="round"/>
<path d="M7.63281 6.15625H7.64605" stroke="#D83DFF" stroke-width="1.5" stroke-linecap="round" stroke-linejoin="round"/>
<path d="M13.5273 6.15625H13.5406" stroke="#D83DFF" stroke-width="1.5" stroke-linecap="round" stroke-linejoin="round"/>
<path d="M1 15C1 8.40034 1 5.10051 3.05025 3.05025C5.10051 1 8.40034 1 15 1C21.5996 1 24.8995 1 26.9498 3.05025C29 5.10051 29 8.40034 29 15C29 21.5996 29 24.8995 26.9498 26.9498C24.8995 29 21.5996 29 15 29C8.40034 29 5.10051 29 3.05025 26.9498C1 24.8995 1 21.5996 1 15Z" stroke="#7A44FF" stroke-width="1.5"/>
</svg>
