<svg width="40" height="39" viewBox="0 0 40 39" fill="none" xmlns="http://www.w3.org/2000/svg">
<path d="M11.7192 9.29268C10.7838 8.41887 10.1984 7.17054 10.1984 5.78455C10.1984 3.1421 12.3261 1 14.9508 1C17.5755 1 19.7033 3.1421 19.7033 5.78455C19.7033 3.1421 21.831 1 24.4558 1C27.0804 1 29.2082 3.1421 29.2082 5.78455C29.2082 7.17054 28.3869 8.35544 27.6874 9.29268M11.7192 29.7073C11.0196 30.6446 10.1984 31.8295 10.1984 33.2155C10.1984 35.8581 12.3261 38 14.9508 38C17.5755 38 19.7033 35.8581 19.7033 33.2155C19.7033 35.8581 21.831 38 24.4558 38C27.0804 38 29.2082 35.8581 29.2082 33.2155C29.2082 31.8295 28.6228 30.5811 27.6874 29.7073M11.7192 29.7073C11.0196 30.3608 9.94566 31.5341 8.88474 31.8203C6.34946 32.5042 3.74348 30.9895 3.06419 28.4371C2.60364 26.7067 3.14681 24.9437 4.33435 23.7745M11.7192 29.7073L11.9102 29.5301M4.11523 14.6467C3.08163 13.4835 2.633 11.8348 3.06419 10.2147C3.74348 7.66228 6.34946 6.14759 8.88474 6.83148C9.36163 6.96017 9.80209 7.15745 10.1984 7.40999M6.01622 14.3301C3.81618 14.2053 1.75597 15.6425 1.16312 17.87C0.483783 20.4224 1.98834 23.0459 4.52361 23.7298C5.02348 23.8647 5.52615 23.9141 6.01622 23.8869M27.6874 9.29268C28.3869 8.6392 29.4609 7.46589 30.5218 7.17969C33.0571 6.49576 35.6629 8.01048 36.3423 10.5629C36.803 12.2933 36.2598 14.0563 35.0721 15.2255M27.6874 9.29268L27.4963 9.46987M35.2913 24.3533C36.3248 25.5165 36.7737 27.1652 36.3423 28.7853C35.6629 31.3377 33.0571 32.8524 30.5218 32.1685C30.045 32.0398 29.6045 31.8426 29.2082 31.59M33.3904 24.6699C35.5905 24.7947 37.6507 23.3575 38.2435 21.13C38.923 18.5776 37.4182 15.9541 34.883 15.2702C34.3829 15.1353 33.8804 15.0859 33.3904 15.1131" stroke="url(#paint0_linear_4405_85)" stroke-width="2" stroke-linecap="round"/>
<path d="M22.9568 14.0112H16.4513C15.1039 14.0112 14.0117 15.1035 14.0117 16.4508V22.9563C14.0117 24.3036 15.1039 25.3958 16.4513 25.3958H22.9568C24.3041 25.3958 25.3963 24.3036 25.3963 22.9563V16.4508C25.3963 15.1035 24.3041 14.0112 22.9568 14.0112Z" stroke="url(#paint1_linear_4405_85)" stroke-width="2"/>
<path d="M17.2642 11.978V13.6044M27.4291 17.2637H25.8027M17.2642 25.8022V27.4286M13.6049 17.2637H11.9785M22.1434 11.978V13.6044M27.4291 22.1429H25.8027M22.1434 25.8022V27.4286M13.6049 22.1429H11.9785" stroke="url(#paint2_linear_4405_85)" stroke-width="2" stroke-linecap="round"/>
<defs>
<linearGradient id="paint0_linear_4405_85" x1="19.7033" y1="1" x2="19.7033" y2="38" gradientUnits="userSpaceOnUse">
<stop stop-color="#CA3FFF"/>
<stop offset="1" stop-color="#7C44FF"/>
</linearGradient>
<linearGradient id="paint1_linear_4405_85" x1="19.704" y1="14.0112" x2="19.704" y2="25.3958" gradientUnits="userSpaceOnUse">
<stop stop-color="#CA3FFF"/>
<stop offset="1" stop-color="#7C44FF"/>
</linearGradient>
<linearGradient id="paint2_linear_4405_85" x1="19.7038" y1="11.978" x2="19.7038" y2="27.4286" gradientUnits="userSpaceOnUse">
<stop stop-color="#CA3FFF"/>
<stop offset="1" stop-color="#7C44FF"/>
</linearGradient>
</defs>
</svg>
