<svg width="143" height="32" viewBox="0 0 143 32" fill="none" xmlns="http://www.w3.org/2000/svg">
<path d="M9.69124 7.72379C8.93281 7.0153 8.45816 6.00314 8.45816 4.87936C8.45816 2.73684 10.1833 1 12.3115 1C14.4396 1 16.1648 2.73684 16.1648 4.87936C16.1648 2.73684 17.89 1 20.0182 1C22.1463 1 23.8715 2.73684 23.8715 4.87936C23.8715 6.00314 23.2056 6.96387 22.6384 7.72379M22.6384 7.72379C23.2056 7.19395 24.0764 6.24261 24.9366 6.01056C26.9922 5.45602 29.1051 6.68417 29.6559 8.7537C30.0295 10.1567 29.589 11.5862 28.626 12.5342M22.6384 7.72379L22.4835 7.86746M9.69124 24.2762C9.124 25.0362 8.45816 25.9969 8.45816 27.1207C8.45816 29.2633 10.1833 31 12.3115 31C14.4396 31 16.1648 29.2633 16.1648 27.1207C16.1648 29.2633 17.89 31 20.0182 31C22.1463 31 23.8715 29.2633 23.8715 27.1207C23.8715 25.9969 23.3969 24.9847 22.6384 24.2762M9.69124 24.2762C9.124 24.8061 8.25324 25.7574 7.39303 25.9894C5.3374 26.5439 3.22444 25.3158 2.67367 23.2463C2.30025 21.8433 2.74066 20.4138 3.70353 19.4658M9.69124 24.2762L9.84611 24.1325M3.52586 12.0649C2.68781 11.1218 2.32405 9.78497 2.67367 8.47138C3.22444 6.40185 5.3374 5.17372 7.39303 5.72823C7.7797 5.83257 8.13683 5.99253 8.45816 6.19729M5.06721 11.8082C3.28339 11.707 1.61295 12.8723 1.13226 14.6784C0.581445 16.7479 1.80136 18.8751 3.85698 19.4296C4.26228 19.5389 4.66985 19.579 5.06721 19.5569M28.8038 19.9351C29.6417 20.8782 30.0057 22.215 29.6559 23.5286C29.1051 25.5981 26.9922 26.8263 24.9366 26.2718C24.55 26.1674 24.1928 26.0075 23.8715 25.8027M27.2625 20.1918C29.0464 20.293 30.7168 19.1277 31.1974 17.3216C31.7484 15.2521 30.5283 13.1249 28.4727 12.5704C28.0672 12.4611 27.6598 12.421 27.2625 12.4431" stroke="url(#paint0_linear_4703_14)" stroke-width="2" stroke-linecap="round"/>
<path d="M18.8036 11.5469H13.5288C12.4363 11.5469 11.5508 12.4326 11.5508 13.525V18.7997C11.5508 19.8921 12.4363 20.7777 13.5288 20.7777H18.8036C19.896 20.7777 20.7815 19.8921 20.7815 18.7997V13.525C20.7815 12.4326 19.896 11.5469 18.8036 11.5469Z" stroke="url(#paint1_linear_4703_14)" stroke-width="2"/>
<path d="M14.1861 9.89844V11.2172M22.4279 14.1842H21.1092M14.1861 21.1073V22.426M11.2191 14.1842H9.90039M18.1422 9.89844V11.2172M22.4279 18.1403H21.1092M18.1422 21.1073V22.426M11.2191 18.1403H9.90039" stroke="url(#paint2_linear_4703_14)" stroke-width="2" stroke-linecap="round"/>
<path d="M41.9941 29.0007V4.27344H56.9174V6.92969H44.9884V15.2848H56.1447V17.941H44.9884V26.3445H57.1106V29.0007H41.9941ZM67.3043 22.2393L67.256 18.7138H67.8356L75.9492 10.4552H79.4748L70.8299 19.1967H70.5884L67.3043 22.2393ZM64.6481 29.0007V4.27344H67.4975V29.0007H64.6481ZM76.4322 29.0007L69.1878 19.8246L71.2162 17.8445L80.0543 29.0007H76.4322ZM92.6326 29.3871C90.9584 29.3871 89.4894 28.9886 88.2257 28.1918C86.97 27.3949 85.988 26.2801 85.2796 24.8473C84.5794 23.4145 84.2292 21.7403 84.2292 19.8246C84.2292 17.8927 84.5794 16.2064 85.2796 14.7656C85.988 13.3248 86.97 12.206 88.2257 11.4091C89.4894 10.6122 90.9584 10.2138 92.6326 10.2138C94.3069 10.2138 95.7718 10.6122 97.0275 11.4091C98.2912 12.206 99.2733 13.3248 99.9735 14.7656C100.682 16.2064 101.036 17.8927 101.036 19.8246C101.036 21.7403 100.682 23.4145 99.9735 24.8473C99.2733 26.2801 98.2912 27.3949 97.0275 28.1918C95.7718 28.9886 94.3069 29.3871 92.6326 29.3871ZM92.6326 26.8274C93.9044 26.8274 94.9508 26.5014 95.7718 25.8494C96.5929 25.1974 97.2006 24.3402 97.595 23.2777C97.9894 22.2152 98.1866 21.0641 98.1866 19.8246C98.1866 18.585 97.9894 17.4299 97.595 16.3594C97.2006 15.2888 96.5929 14.4235 95.7718 13.7635C94.9508 13.1034 93.9044 12.7734 92.6326 12.7734C91.3608 12.7734 90.3144 13.1034 89.4934 13.7635C88.6724 14.4235 88.0647 15.2888 87.6703 16.3594C87.2759 17.4299 87.0786 18.585 87.0786 19.8246C87.0786 21.0641 87.2759 22.2152 87.6703 23.2777C88.0647 24.3402 88.6724 25.1974 89.4934 25.8494C90.3144 26.5014 91.3608 26.8274 92.6326 26.8274ZM111.112 29.0007H106.331L115.036 4.27344H120.566L129.283 29.0007H124.502L117.898 9.34446H117.705L111.112 29.0007ZM111.269 19.3054H124.309V22.9034H111.269V19.3054ZM139.74 4.27344V29.0007H135.26V4.27344H139.74Z" fill="#C2C4E4"/>
<defs>
<linearGradient id="paint0_linear_4703_14" x1="16.1648" y1="1" x2="16.1648" y2="31" gradientUnits="userSpaceOnUse">
<stop stop-color="#CA3FFF"/>
<stop offset="1" stop-color="#7C44FF"/>
</linearGradient>
<linearGradient id="paint1_linear_4703_14" x1="16.1662" y1="11.5469" x2="16.1662" y2="20.7777" gradientUnits="userSpaceOnUse">
<stop stop-color="#CA3FFF"/>
<stop offset="1" stop-color="#7C44FF"/>
</linearGradient>
<linearGradient id="paint2_linear_4703_14" x1="16.1641" y1="9.89844" x2="16.1641" y2="22.426" gradientUnits="userSpaceOnUse">
<stop stop-color="#CA3FFF"/>
<stop offset="1" stop-color="#7C44FF"/>
</linearGradient>
</defs>
</svg>
