<svg width="143" height="32" viewBox="0 0 143 32" fill="none" xmlns="http://www.w3.org/2000/svg">
<path d="M9.69124 7.72379C8.93281 7.0153 8.45816 6.00314 8.45816 4.87936C8.45816 2.73684 10.1833 1 12.3115 1C14.4396 1 16.1648 2.73684 16.1648 4.87936C16.1648 2.73684 17.89 1 20.0182 1C22.1463 1 23.8715 2.73684 23.8715 4.87936C23.8715 6.00314 23.2056 6.96387 22.6384 7.72379M22.6384 7.72379C23.2056 7.19395 24.0764 6.24261 24.9366 6.01056C26.9922 5.45602 29.1051 6.68417 29.6559 8.7537C30.0295 10.1567 29.589 11.5862 28.626 12.5342M22.6384 7.72379L22.4835 7.86746M9.69124 24.2762C9.124 25.0362 8.45816 25.9969 8.45816 27.1207C8.45816 29.2633 10.1833 31 12.3115 31C14.4396 31 16.1648 29.2633 16.1648 27.1207C16.1648 29.2633 17.89 31 20.0182 31C22.1463 31 23.8715 29.2633 23.8715 27.1207C23.8715 25.9969 23.3969 24.9847 22.6384 24.2762M9.69124 24.2762C9.124 24.8061 8.25324 25.7574 7.39303 25.9894C5.3374 26.5439 3.22444 25.3158 2.67367 23.2463C2.30025 21.8433 2.74066 20.4138 3.70353 19.4658M9.69124 24.2762L9.84611 24.1325M3.52586 12.0649C2.68781 11.1218 2.32405 9.78497 2.67367 8.47138C3.22444 6.40185 5.3374 5.17372 7.39303 5.72823C7.7797 5.83257 8.13683 5.99253 8.45816 6.19729M5.06721 11.8082C3.28339 11.707 1.61295 12.8723 1.13226 14.6784C0.581445 16.7479 1.80136 18.8751 3.85698 19.4296C4.26228 19.5389 4.66985 19.579 5.06721 19.5569M28.8038 19.9351C29.6417 20.8782 30.0057 22.215 29.6559 23.5286C29.1051 25.5981 26.9922 26.8263 24.9366 26.2718C24.55 26.1674 24.1928 26.0075 23.8715 25.8027M27.2625 20.1918C29.0464 20.293 30.7168 19.1277 31.1974 17.3216C31.7484 15.2521 30.5283 13.1249 28.4727 12.5704C28.0672 12.4611 27.6598 12.421 27.2625 12.4431" stroke="url(#paint0_linear_4659_43)" stroke-width="2" stroke-linecap="round"/>
<path d="M18.8036 11.5498H13.5288C12.4363 11.5498 11.5508 12.4355 11.5508 13.5279V18.8026C11.5508 19.895 12.4363 20.7806 13.5288 20.7806H18.8036C19.896 20.7806 20.7815 19.895 20.7815 18.8026V13.5279C20.7815 12.4355 19.896 11.5498 18.8036 11.5498Z" stroke="url(#paint1_linear_4659_43)" stroke-width="2"/>
<path d="M14.1861 9.90137V11.2201M22.4279 14.1871H21.1092M14.1861 21.1102V22.4289M11.2191 14.1871H9.90039M18.1422 9.90137V11.2201M22.4279 18.1432H21.1092M18.1422 21.1102V22.4289M11.2191 18.1432H9.90039" stroke="url(#paint2_linear_4659_43)" stroke-width="2" stroke-linecap="round"/>
<path d="M41.9943 29V4.27273H56.9176V6.92898H44.9886V15.2841H56.1449V17.9403H44.9886V26.3438H57.1108V29H41.9943ZM67.3045 22.2386L67.2562 18.7131H67.8358L75.9494 10.4545H79.475L70.8301 19.196H70.5886L67.3045 22.2386ZM64.6483 29V4.27273H67.4977V29H64.6483ZM76.4324 29L69.188 19.8239L71.2164 17.8438L80.0545 29H76.4324ZM92.6328 29.3864C90.9586 29.3864 89.4896 28.9879 88.2259 28.1911C86.9702 27.3942 85.9882 26.2794 85.2798 24.8466C84.5796 23.4138 84.2294 21.7396 84.2294 19.8239C84.2294 17.892 84.5796 16.2057 85.2798 14.7649C85.9882 13.3241 86.9702 12.2053 88.2259 11.4084C89.4896 10.6115 90.9586 10.2131 92.6328 10.2131C94.3071 10.2131 95.772 10.6115 97.0277 11.4084C98.2914 12.2053 99.2735 13.3241 99.9737 14.7649C100.682 16.2057 101.036 17.892 101.036 19.8239C101.036 21.7396 100.682 23.4138 99.9737 24.8466C99.2735 26.2794 98.2914 27.3942 97.0277 28.1911C95.772 28.9879 94.3071 29.3864 92.6328 29.3864ZM92.6328 26.8267C93.9046 26.8267 94.951 26.5007 95.772 25.8487C96.5931 25.1967 97.2008 24.3395 97.5952 23.277C97.9896 22.2145 98.1868 21.0634 98.1868 19.8239C98.1868 18.5843 97.9896 17.4292 97.5952 16.3587C97.2008 15.2881 96.5931 14.4228 95.772 13.7628C94.951 13.1027 93.9046 12.7727 92.6328 12.7727C91.361 12.7727 90.3146 13.1027 89.4936 13.7628C88.6726 14.4228 88.0649 15.2881 87.6705 16.3587C87.2761 17.4292 87.0788 18.5843 87.0788 19.8239C87.0788 21.0634 87.2761 22.2145 87.6705 23.277C88.0649 24.3395 88.6726 25.1967 89.4936 25.8487C90.3146 26.5007 91.361 26.8267 92.6328 26.8267ZM111.112 29H106.331L115.036 4.27273H120.566L129.283 29H124.502L117.898 9.34375H117.705L111.112 29ZM111.269 19.3047H124.309V22.9027H111.269V19.3047ZM139.74 4.27273V29H135.26V4.27273H139.74Z" fill="#171717"/>
<defs>
<linearGradient id="paint0_linear_4659_43" x1="16.1648" y1="1" x2="16.1648" y2="31" gradientUnits="userSpaceOnUse">
<stop stop-color="#CA3FFF"/>
<stop offset="1" stop-color="#7C44FF"/>
</linearGradient>
<linearGradient id="paint1_linear_4659_43" x1="16.1662" y1="11.5498" x2="16.1662" y2="20.7806" gradientUnits="userSpaceOnUse">
<stop stop-color="#CA3FFF"/>
<stop offset="1" stop-color="#7C44FF"/>
</linearGradient>
<linearGradient id="paint2_linear_4659_43" x1="16.1641" y1="9.90137" x2="16.1641" y2="22.4289" gradientUnits="userSpaceOnUse">
<stop stop-color="#CA3FFF"/>
<stop offset="1" stop-color="#7C44FF"/>
</linearGradient>
</defs>
</svg>
